<?xml version="1.0" encoding="utf-8"?>
<!-- Generator: Adobe Illustrator 21.1.0, SVG Export Plug-In . SVG Version: 6.00 Build 0)  -->
<svg version="1.1" id="Layer_1" xmlns="http://www.w3.org/2000/svg" xmlns:xlink="http://www.w3.org/1999/xlink" x="0px" y="0px"
	 width="250px" height="47.7px" viewBox="0 0 250 47.7" style="enable-background:new 0 0 250 47.7;" xml:space="preserve">
<style type="text/css">
	.st0{fill:#3C2414;}
	.st1{fill:#F3B433;}
</style>
<title>Group</title>
<g id="Page-1">
	<g id="JN-0024-PP-logo-refresh-FINAL-for-home-page-WEB-V1-28-08-22-_x28_1_x29_" transform="translate(-55.000000, -166.000000)">
		<g id="Group" transform="translate(55.769100, 166.743210)">
			<path id="Shape" class="st0" d="M57.3,17.3l2.2,0.1c0.8,0,1.5,0,2.2-0.2c0.7-0.2,1.2-0.4,1.7-0.8c0.5-0.4,0.8-0.8,1.1-1.4
				c0.3-0.6,0.4-1.3,0.4-2.2c0-0.8-0.1-1.4-0.4-2c-0.3-0.6-0.7-1-1.1-1.4c-0.5-0.3-1-0.6-1.7-0.8c-0.6-0.2-1.3-0.3-2-0.3
				c-0.2,0-0.4,0-0.6,0c-0.2,0-0.4-0.1-0.6-0.1c-0.2,0-0.4,0-0.6,0c-0.2,0-0.4,0.1-0.5,0.2V17.3z M57.3,26.3c0,0.4,0,0.7,0.1,0.9
				c0,0.2,0.1,0.4,0.3,0.5c0.1,0.1,0.3,0.2,0.5,0.2c0.2,0,0.5,0,0.8,0v0.3h-5.8v-0.3c0.3,0,0.6,0,0.8,0c0.2,0,0.4-0.1,0.5-0.2
				c0.1-0.1,0.2-0.3,0.2-0.5c0-0.2,0-0.5,0-0.8V8.8c0-0.3,0-0.6,0-0.8c0-0.2-0.1-0.4-0.2-0.5c-0.1-0.1-0.3-0.2-0.5-0.2
				c-0.2,0-0.5,0-0.8,0V6.9h7.1c0.9,0,1.9,0.1,2.7,0.3c0.9,0.2,1.7,0.6,2.4,1c0.7,0.5,1.2,1.1,1.6,1.8c0.4,0.8,0.6,1.7,0.6,2.7
				c0,1.1-0.2,2.1-0.6,2.9c-0.4,0.8-1,1.4-1.7,1.9c-0.7,0.5-1.6,0.8-2.5,1.1c-0.9,0.2-1.9,0.3-2.9,0.3l-2.6-0.1V26.3z"/>
			<path id="Shape_1_" class="st0" d="M74,16.7h1.5c0.8,0,1.5-0.1,2.2-0.2c0.7-0.1,1.4-0.4,2-0.7c0.6-0.3,1.1-0.8,1.4-1.4
				c0.4-0.6,0.5-1.3,0.5-2.2c0-0.8-0.1-1.4-0.4-1.9c-0.3-0.5-0.7-0.9-1.2-1.2c-0.5-0.3-1.1-0.5-1.7-0.6c-0.6-0.1-1.3-0.2-1.9-0.2
				h-0.6c-0.2,0-0.4,0-0.7,0c-0.2,0-0.4,0.1-0.6,0.2c-0.2,0.1-0.4,0.2-0.5,0.3V16.7z M83.6,28.2c-0.5-1.1-1-2.1-1.5-3
				c-0.5-0.9-1-1.7-1.6-2.5c-0.6-0.8-1.2-1.5-1.9-2.2c-0.7-0.7-1.5-1.5-2.4-2.2l-2.3,0v8.1c0,0.4,0,0.6,0.1,0.8
				c0,0.2,0.1,0.4,0.2,0.5c0.1,0.1,0.3,0.2,0.5,0.2c0.2,0,0.5,0,0.8,0v0.3h-5.7v-0.3c0.3,0,0.6,0,0.8,0c0.2,0,0.4-0.1,0.5-0.2
				c0.1-0.1,0.2-0.3,0.2-0.5c0-0.2,0-0.5,0-0.8V8.8c0-0.3,0-0.6,0-0.8c0-0.2-0.1-0.4-0.2-0.5c-0.1-0.1-0.3-0.2-0.5-0.2
				c-0.2,0-0.5,0-0.8,0V6.9h7.5c0.9,0,1.8,0.1,2.7,0.3c0.8,0.2,1.6,0.5,2.2,1c0.6,0.4,1.2,1,1.6,1.7c0.4,0.7,0.6,1.6,0.6,2.6
				c0,0.8-0.1,1.5-0.4,2.1c-0.3,0.6-0.7,1.1-1.2,1.5c-0.5,0.4-1.1,0.7-1.7,1c-0.7,0.3-1.3,0.4-2,0.5c0.6,0.5,1.1,0.9,1.5,1.3
				c0.4,0.4,0.7,0.7,1,1c0.3,0.3,0.6,0.7,0.8,1c0.3,0.3,0.6,0.7,1,1.2c0.4,0.5,0.8,1.1,1.2,1.8c0.4,0.7,0.7,1.3,1.1,1.9
				c0.3,0.6,0.6,1.1,0.9,1.5c0.3,0.4,0.5,0.6,0.8,0.6v0.3H83.6z"/>
			<path id="Path" class="st0" d="M90.9,28.2v-0.3c0.4,0,0.6,0,0.9,0c0.2,0,0.4-0.1,0.5-0.2c0.1-0.1,0.2-0.2,0.3-0.5
				c0-0.2,0.1-0.5,0.1-0.9V8.8c0-0.4,0-0.7-0.1-0.9c0-0.2-0.1-0.4-0.3-0.5c-0.1-0.1-0.3-0.2-0.5-0.2c-0.2,0-0.5,0-0.9,0V6.9H97v0.3
				c-0.4,0-0.6,0-0.9,0c-0.2,0-0.4,0.1-0.5,0.2c-0.1,0.1-0.2,0.2-0.3,0.5c0,0.2-0.1,0.5-0.1,0.9v17.6c0,0.4,0,0.7,0.1,0.9
				c0,0.2,0.1,0.4,0.3,0.5c0.1,0.1,0.3,0.2,0.5,0.2c0.2,0,0.5,0,0.9,0v0.3H90.9z"/>
			<path id="Path_1_" class="st0" d="M120.2,28.2v-0.3c0.3,0,0.6,0,0.8,0c0.2,0,0.4-0.1,0.5-0.2c0.1-0.1,0.2-0.3,0.2-0.5
				c0-0.2,0.1-0.5,0.1-0.8v-17l-8,18.8h-1.1l-8-18.4v15.7c0,0.4,0,0.7,0,1c0,0.3,0.1,0.5,0.2,0.7c0.1,0.2,0.3,0.3,0.5,0.4
				c0.2,0.1,0.5,0.1,1,0.1v0.3h-5.1v-0.3c0.4,0,0.8,0,1-0.1c0.2-0.1,0.4-0.2,0.5-0.4c0.1-0.2,0.1-0.4,0.2-0.7c0-0.3,0-0.6,0-1.1V8.8
				c0-0.4,0-0.7-0.1-0.9c-0.1-0.2-0.1-0.4-0.3-0.5c-0.1-0.1-0.3-0.2-0.5-0.2c-0.2,0-0.5,0-0.8,0V6.9h4.9l7.6,17.4l7.4-17.4h4.8v0.3
				c-0.3,0-0.6,0-0.8,0c-0.2,0-0.4,0.1-0.5,0.2c-0.1,0.1-0.2,0.3-0.2,0.5c0,0.2,0,0.5,0,0.8v17.6c0,0.4,0,0.6,0,0.8
				c0,0.2,0.1,0.4,0.2,0.5c0.1,0.1,0.3,0.2,0.5,0.2c0.2,0,0.5,0,0.8,0v0.3H120.2z"/>
			<path id="Path_2_" class="st0" d="M144.6,28.2h-14.3v-0.3c0.6,0,1.1-0.1,1.2-0.3c0.2-0.2,0.3-0.6,0.3-1.3V8.8
				c0-0.7-0.1-1.1-0.3-1.3c-0.2-0.2-0.6-0.3-1.2-0.3V6.9h14l0,3.2h-0.4c-0.1-0.8-0.4-1.3-0.7-1.5c-0.4-0.2-0.9-0.3-1.7-0.3h-6.3
				c-0.4,0-0.6,0-0.6,0.1c-0.1,0.1-0.1,0.3-0.1,0.6v7.2h6.4c0.3,0,0.6,0,0.9,0c0.3,0,0.5-0.1,0.6-0.2c0.2-0.1,0.3-0.3,0.4-0.5
				c0.1-0.2,0.1-0.5,0.2-0.8h0.4v4.7h-0.4c0-0.4-0.1-0.7-0.2-0.9c-0.1-0.2-0.2-0.4-0.4-0.5c-0.2-0.1-0.4-0.2-0.6-0.2
				c-0.2,0-0.5,0-0.9,0h-6.4v8.2c0,0.2,0.1,0.3,0.2,0.4c0.1,0.1,0.3,0.2,0.4,0.2c0.2,0,0.3,0,0.5,0c0.2,0,0.3,0,0.5,0h5.2
				c0.5,0,0.9,0,1.3-0.1c0.4-0.1,0.7-0.2,1-0.3c0.3-0.2,0.6-0.4,0.8-0.7c0.2-0.3,0.4-0.7,0.7-1.1h0.5L144.6,28.2z"/>
			<path id="Shape_2_" class="st1" d="M152,17.3l2.2,0.1c0.8,0,1.5,0,2.2-0.2c0.7-0.2,1.2-0.4,1.7-0.8c0.5-0.4,0.8-0.8,1.1-1.4
				c0.3-0.6,0.4-1.3,0.4-2.2c0-0.8-0.1-1.4-0.4-2c-0.3-0.6-0.7-1-1.1-1.4c-0.5-0.3-1-0.6-1.7-0.8c-0.6-0.2-1.3-0.3-2-0.3
				c-0.2,0-0.4,0-0.6,0c-0.2,0-0.4-0.1-0.6-0.1c-0.2,0-0.4,0-0.6,0c-0.2,0-0.4,0.1-0.5,0.2V17.3z M152,26.3c0,0.4,0,0.7,0.1,0.9
				c0,0.2,0.1,0.4,0.3,0.5c0.1,0.1,0.3,0.2,0.5,0.2c0.2,0,0.5,0,0.8,0v0.3h-5.8v-0.3c0.3,0,0.6,0,0.8,0c0.2,0,0.4-0.1,0.5-0.2
				c0.1-0.1,0.2-0.3,0.2-0.5c0-0.2,0-0.5,0-0.8V8.8c0-0.3,0-0.6,0-0.8c0-0.2-0.1-0.4-0.2-0.5c-0.1-0.1-0.3-0.2-0.5-0.2
				c-0.2,0-0.5,0-0.8,0V6.9h7.1c0.9,0,1.9,0.1,2.8,0.3c0.9,0.2,1.7,0.6,2.4,1c0.7,0.5,1.2,1.1,1.6,1.8c0.4,0.8,0.6,1.7,0.6,2.7
				c0,1.1-0.2,2.1-0.6,2.9c-0.4,0.8-1,1.4-1.7,1.9c-0.7,0.5-1.6,0.8-2.5,1.1c-0.9,0.2-1.9,0.3-2.9,0.3l-2.6-0.1V26.3z"/>
			<path id="Path_3_" class="st1" d="M164.4,28.2v-0.3c0.4,0,0.6,0,0.9,0c0.2,0,0.4-0.1,0.5-0.2c0.1-0.1,0.2-0.2,0.3-0.5
				c0-0.2,0.1-0.5,0.1-0.9V8.8c0-0.4,0-0.7-0.1-0.9c0-0.2-0.1-0.4-0.3-0.5c-0.1-0.1-0.3-0.2-0.5-0.2c-0.2,0-0.5,0-0.9,0V6.9h6.1v0.3
				c-0.4,0-0.6,0-0.9,0c-0.2,0-0.4,0.1-0.5,0.2c-0.1,0.1-0.2,0.2-0.3,0.5c0,0.2-0.1,0.5-0.1,0.9v17.6c0,0.4,0,0.7,0.1,0.9
				c0,0.2,0.1,0.4,0.3,0.5c0.1,0.1,0.3,0.2,0.5,0.2c0.2,0,0.5,0,0.9,0v0.3H164.4z"/>
			<path id="Path_4_" class="st1" d="M188.9,28.2h-14.2v-0.3c0.3,0,0.6,0,0.8,0c0.2,0,0.4-0.1,0.5-0.2c0.1-0.1,0.2-0.3,0.2-0.5
				c0-0.2,0-0.5,0-0.8V8.8c0-0.3,0-0.6,0-0.8c0-0.2-0.1-0.4-0.2-0.5c-0.1-0.1-0.3-0.2-0.5-0.2c-0.2,0-0.5,0-0.8,0V6.9h5.8v0.3
				c-0.3,0-0.6,0-0.8,0c-0.2,0-0.4,0.1-0.5,0.2c-0.1,0.1-0.2,0.3-0.2,0.5c0,0.2-0.1,0.5-0.1,0.8v17.3c0,0.2,0.1,0.3,0.2,0.4
				c0.1,0.1,0.3,0.2,0.4,0.2c0.2,0,0.3,0,0.5,0c0.2,0,0.3,0,0.5,0h4.6c0.6,0,1.1,0,1.5-0.1c0.4,0,0.8-0.1,1.2-0.3
				c0.3-0.2,0.6-0.4,0.9-0.7c0.3-0.3,0.5-0.8,0.8-1.3l0.4,0.1L188.9,28.2z"/>
			<path id="Path_5_" class="st1" d="M205.7,28.2h-14.2v-0.3c0.3,0,0.6,0,0.8,0c0.2,0,0.4-0.1,0.5-0.2c0.1-0.1,0.2-0.3,0.2-0.5
				c0-0.2,0-0.5,0-0.8V8.8c0-0.3,0-0.6,0-0.8c0-0.2-0.1-0.4-0.2-0.5c-0.1-0.1-0.3-0.2-0.5-0.2c-0.2,0-0.5,0-0.8,0V6.9h5.8v0.3
				c-0.3,0-0.6,0-0.8,0c-0.2,0-0.4,0.1-0.5,0.2c-0.1,0.1-0.2,0.3-0.2,0.5c0,0.2-0.1,0.5-0.1,0.8v17.3c0,0.2,0.1,0.3,0.2,0.4
				c0.1,0.1,0.3,0.2,0.4,0.2c0.2,0,0.3,0,0.5,0c0.2,0,0.3,0,0.5,0h4.6c0.6,0,1.1,0,1.5-0.1c0.4,0,0.8-0.1,1.2-0.3
				c0.3-0.2,0.6-0.4,0.9-0.7c0.3-0.3,0.5-0.8,0.8-1.3l0.4,0.1L205.7,28.2z"/>
			<path id="Shape_3_" class="st1" d="M217.5,10l-4.1,10.2h8.3L217.5,10z M223,28.2v-0.3c0.5,0,0.8-0.1,1.1-0.3
				c0.2-0.2,0.2-0.5,0-1.1l-1.9-4.8h-9.5l-1.8,4.4c-0.2,0.5-0.3,1-0.2,1.3c0.1,0.3,0.5,0.4,1.1,0.4v0.3h-4.4v-0.3
				c0.3,0,0.5-0.1,0.6-0.2c0.2-0.1,0.3-0.3,0.5-0.4c0.1-0.2,0.3-0.4,0.3-0.6c0.1-0.2,0.2-0.4,0.3-0.6l8-19.3h1.7l8.4,20.1
				c0.2,0.6,0.7,0.9,1.4,1v0.3H223z"/>
			<path id="Shape_4_" class="st1" d="M236,16.7h1.5c0.8,0,1.5-0.1,2.2-0.2s1.4-0.4,2-0.7c0.6-0.3,1.1-0.8,1.4-1.4
				c0.4-0.6,0.5-1.3,0.5-2.2c0-0.8-0.1-1.4-0.4-1.9c-0.3-0.5-0.7-0.9-1.2-1.2c-0.5-0.3-1.1-0.5-1.7-0.6c-0.6-0.1-1.3-0.2-1.9-0.2
				h-0.6c-0.2,0-0.4,0-0.7,0c-0.2,0-0.4,0.1-0.6,0.2c-0.2,0.1-0.4,0.2-0.5,0.3V16.7z M245.7,28.2c-0.5-1.1-1-2.1-1.5-3
				c-0.5-0.9-1-1.7-1.6-2.5c-0.6-0.8-1.2-1.5-1.9-2.2c-0.7-0.7-1.5-1.5-2.4-2.2l-2.3,0v8.1c0,0.4,0,0.6,0.1,0.8
				c0,0.2,0.1,0.4,0.2,0.5c0.1,0.1,0.3,0.2,0.5,0.2c0.2,0,0.5,0,0.8,0v0.3h-5.7v-0.3c0.3,0,0.6,0,0.8,0c0.2,0,0.4-0.1,0.5-0.2
				c0.1-0.1,0.2-0.3,0.2-0.5c0-0.2,0-0.5,0-0.8V8.8c0-0.3,0-0.6,0-0.8c0-0.2-0.1-0.4-0.2-0.5c-0.1-0.1-0.3-0.2-0.5-0.2
				c-0.2,0-0.5,0-0.8,0V6.9h7.5c0.9,0,1.8,0.1,2.7,0.3c0.8,0.2,1.6,0.5,2.2,1c0.6,0.4,1.2,1,1.6,1.7c0.4,0.7,0.6,1.6,0.6,2.6
				c0,0.8-0.1,1.5-0.4,2.1c-0.3,0.6-0.7,1.1-1.2,1.5c-0.5,0.4-1.1,0.7-1.7,1c-0.6,0.3-1.3,0.4-2,0.5c0.6,0.5,1.1,0.9,1.5,1.3
				c0.4,0.4,0.7,0.7,1,1c0.3,0.3,0.6,0.7,0.8,1c0.3,0.3,0.6,0.7,1,1.2c0.4,0.5,0.8,1.1,1.2,1.8c0.4,0.7,0.7,1.3,1.1,1.9
				c0.3,0.6,0.6,1.1,0.9,1.5c0.3,0.4,0.5,0.6,0.8,0.6v0.3H245.7z"/>
			<path id="Shape_5_" class="st0" d="M59.4,40.9C59.4,40.9,59.4,40.9,59.4,40.9C59.3,40.9,59.3,40.9,59.4,40.9L59.4,40.9z
				 M59.9,42.9c-0.1,0.1-0.2,0.2-0.2,0.3v3c0,0.1-0.1,0.1-0.2,0.2c-0.1,0-0.2,0.1-0.3,0.1c-0.1,0-0.2,0.1-0.3,0.1
				c-0.1,0-0.2,0.1-0.2,0.1c-0.7,0.2-1.4,0.3-2.1,0.2c-0.7-0.1-1.3-0.2-1.8-0.6c-0.5-0.3-0.9-0.7-1.2-1.3c-0.3-0.6-0.5-1.2-0.5-2.1
				c0-0.6,0.1-1.1,0.3-1.5c0.2-0.5,0.4-0.9,0.8-1.2c0.3-0.3,0.7-0.6,1.2-0.8c0.5-0.2,1-0.3,1.5-0.3c0.4,0,0.9,0.1,1.3,0.2
				c0,0,0.1,0,0.1,0c0.1,0,0.2,0,0.3,0.1c0.1,0,0.2,0.1,0.4,0.1c0.1,0,0.1,0,0.2-0.1c0.1,0,0.1-0.1,0.1-0.1h0.1c0,0.1,0,0.2,0,0.3
				c0,0.2,0,0.3,0,0.5c0,0.2,0,0.3,0,0.5c0,0.1,0,0.2-0.1,0.3c0,0,0,0,0,0c0,0,0,0,0,0l0-0.1c-0.2-0.4-0.5-0.7-0.9-0.9
				c-0.4-0.2-0.8-0.3-1.3-0.3c-0.5,0-1,0.1-1.3,0.3c-0.4,0.2-0.7,0.4-0.9,0.7c-0.2,0.3-0.4,0.7-0.6,1.1c-0.1,0.4-0.2,0.9-0.2,1.3
				c0,0.4,0.1,0.9,0.2,1.3c0.1,0.4,0.3,0.8,0.6,1.1c0.3,0.3,0.6,0.6,1,0.7c0.4,0.1,0.8,0.2,1.2,0.2c0.1,0,0.2,0,0.4,0
				c0.2,0,0.3,0,0.5-0.1c0.2,0,0.3-0.1,0.4-0.1c0.1-0.1,0.2-0.1,0.3-0.2v-2.6c0-0.1,0-0.2-0.1-0.3c0-0.1-0.1-0.1-0.2-0.1
				c-0.1,0-0.2,0-0.2,0c-0.1,0-0.2,0-0.3,0v-0.2h2.2v0.1C60.1,42.8,60,42.8,59.9,42.9"/>
			<path id="Shape_6_" class="st0" d="M64.9,42.7h0.5c0.3,0,0.5,0,0.8-0.1c0.3,0,0.5-0.1,0.7-0.3c0.2-0.1,0.4-0.3,0.5-0.5
				c0.1-0.2,0.2-0.5,0.2-0.8c0-0.3-0.1-0.5-0.2-0.7c-0.1-0.2-0.2-0.3-0.4-0.4c-0.2-0.1-0.4-0.2-0.6-0.2c-0.2,0-0.4-0.1-0.7-0.1h-0.2
				c-0.1,0-0.2,0-0.2,0c-0.1,0-0.2,0-0.2,0.1c-0.1,0-0.1,0.1-0.2,0.1V42.7z M68.3,46.8c-0.2-0.4-0.4-0.7-0.5-1.1
				c-0.2-0.3-0.4-0.6-0.6-0.9c-0.2-0.3-0.4-0.5-0.7-0.8c-0.2-0.3-0.5-0.5-0.8-0.8l-0.8,0v2.9c0,0.1,0,0.2,0,0.3c0,0.1,0,0.1,0.1,0.2
				c0,0,0.1,0.1,0.2,0.1c0.1,0,0.2,0,0.3,0v0.1h-2v-0.1c0.1,0,0.2,0,0.3,0c0.1,0,0.1,0,0.2-0.1c0,0,0.1-0.1,0.1-0.2
				c0-0.1,0-0.2,0-0.3v-6.2c0-0.1,0-0.2,0-0.3c0-0.1,0-0.1-0.1-0.2c0,0-0.1-0.1-0.2-0.1c-0.1,0-0.2,0-0.3,0v-0.1h2.7
				c0.3,0,0.6,0,0.9,0.1c0.3,0.1,0.6,0.2,0.8,0.3c0.2,0.2,0.4,0.4,0.6,0.6c0.1,0.3,0.2,0.6,0.2,0.9c0,0.3-0.1,0.5-0.2,0.7
				c-0.1,0.2-0.2,0.4-0.4,0.5c-0.2,0.1-0.4,0.3-0.6,0.3c-0.2,0.1-0.5,0.2-0.7,0.2c0.2,0.2,0.4,0.3,0.5,0.5c0.1,0.1,0.3,0.2,0.4,0.4
				c0.1,0.1,0.2,0.2,0.3,0.4c0.1,0.1,0.2,0.3,0.3,0.4c0.1,0.2,0.3,0.4,0.4,0.6c0.1,0.2,0.3,0.5,0.4,0.7c0.1,0.2,0.2,0.4,0.3,0.5
				c0.1,0.1,0.2,0.2,0.3,0.2v0.1H68.3z"/>
			<path id="Shape_7_" class="st0" d="M78.1,41.8c-0.1-0.4-0.2-0.8-0.4-1.1c-0.2-0.3-0.5-0.6-0.8-0.8c-0.3-0.2-0.7-0.3-1.2-0.3
				c-0.5,0-0.9,0.1-1.2,0.3c-0.3,0.2-0.6,0.5-0.8,0.8c-0.2,0.3-0.3,0.7-0.4,1.1c-0.1,0.4-0.1,0.8-0.1,1.2c0,0.4,0,0.8,0.1,1.2
				c0.1,0.4,0.2,0.8,0.4,1.1c0.2,0.3,0.5,0.6,0.8,0.8c0.3,0.2,0.7,0.3,1.2,0.3c0.5,0,0.9-0.1,1.2-0.3c0.3-0.2,0.6-0.5,0.8-0.8
				c0.2-0.3,0.3-0.7,0.4-1.1c0.1-0.4,0.1-0.8,0.1-1.2C78.2,42.6,78.2,42.2,78.1,41.8 M79,44.5c-0.2,0.5-0.4,0.9-0.7,1.2
				c-0.3,0.4-0.7,0.6-1.1,0.8c-0.4,0.2-0.9,0.3-1.5,0.3c-0.6,0-1.1-0.1-1.5-0.3c-0.4-0.2-0.8-0.5-1.1-0.8c-0.3-0.4-0.5-0.8-0.7-1.2
				c-0.2-0.5-0.2-1-0.2-1.5c0-0.7,0.1-1.2,0.3-1.7c0.2-0.5,0.5-0.9,0.8-1.2c0.3-0.3,0.7-0.6,1.1-0.7c0.4-0.2,0.9-0.2,1.3-0.2
				c0.4,0,0.9,0.1,1.3,0.2c0.4,0.2,0.8,0.4,1.1,0.7c0.3,0.3,0.6,0.7,0.8,1.2c0.2,0.5,0.3,1.1,0.3,1.7C79.2,43.6,79.1,44.1,79,44.5"
				/>
			<path id="Path_6_" class="st0" d="M89,39.4c-0.1,0-0.2,0-0.3,0.1c-0.1,0.1-0.1,0.1-0.1,0.2c0,0.1,0,0.2,0,0.3v0.3v3.9
				c0,0.9-0.2,1.6-0.7,2.1c-0.5,0.5-1.2,0.7-2.1,0.7c-0.9,0-1.6-0.2-2.1-0.7C83.2,45.7,83,45,83,44.1v-4.2c0-0.2,0-0.3-0.1-0.4
				c0-0.1-0.2-0.2-0.3-0.2h-0.2v-0.1h2.1v0.1c-0.1,0-0.2,0-0.3,0c-0.1,0-0.1,0-0.2,0.1c0,0-0.1,0.1-0.1,0.2c0,0.1,0,0.2,0,0.3v4.2
				c0,0.7,0.2,1.2,0.5,1.6c0.3,0.4,0.8,0.6,1.5,0.6c0.7,0,1.2-0.2,1.5-0.6c0.4-0.4,0.5-0.9,0.5-1.5v-4v-0.4c0-0.1,0-0.2-0.1-0.3
				c0-0.1-0.1-0.1-0.2-0.2c-0.1,0-0.2-0.1-0.4-0.1v-0.1h1.8v0.1H89z"/>
			<path id="Shape_8_" class="st0" d="M94.3,42.9l0.8,0c0.3,0,0.5,0,0.8-0.1c0.2-0.1,0.4-0.1,0.6-0.3c0.2-0.1,0.3-0.3,0.4-0.5
				c0.1-0.2,0.1-0.5,0.1-0.8c0-0.3-0.1-0.5-0.2-0.7c-0.1-0.2-0.2-0.4-0.4-0.5c-0.2-0.1-0.4-0.2-0.6-0.3c-0.2-0.1-0.5-0.1-0.7-0.1
				c-0.1,0-0.1,0-0.2,0c-0.1,0-0.1,0-0.2,0c-0.1,0-0.1,0-0.2,0c-0.1,0-0.1,0-0.2,0.1V42.9z M94.3,46.1c0,0.1,0,0.2,0,0.3
				c0,0.1,0,0.1,0.1,0.2c0,0,0.1,0.1,0.2,0.1c0.1,0,0.2,0,0.3,0v0.1h-2v-0.1c0.1,0,0.2,0,0.3,0c0.1,0,0.1,0,0.2-0.1
				c0,0,0.1-0.1,0.1-0.2c0-0.1,0-0.2,0-0.3v-6.2c0-0.1,0-0.2,0-0.3c0-0.1,0-0.1-0.1-0.2c0,0-0.1-0.1-0.2-0.1c-0.1,0-0.2,0-0.3,0
				v-0.1h2.5c0.3,0,0.7,0,1,0.1c0.3,0.1,0.6,0.2,0.8,0.4c0.2,0.2,0.4,0.4,0.6,0.7c0.1,0.3,0.2,0.6,0.2,1c0,0.4-0.1,0.7-0.2,1
				c-0.2,0.3-0.4,0.5-0.6,0.7c-0.3,0.2-0.5,0.3-0.9,0.4c-0.3,0.1-0.7,0.1-1,0.1l-0.9,0V46.1z"/>
			<polygon id="Path_7_" class="st1" points="19.9,40.4 23.1,40.4 23.1,37.5 19.9,37.5 			"/>
			<polygon id="Path_8_" class="st1" points="27,40.4 30.1,40.4 30.1,37.5 27,37.5 			"/>
			<polygon id="Path_9_" class="st1" points="19.9,46.9 23.1,46.9 23.1,44 19.9,44 			"/>
			<polygon id="Path_10_" class="st1" points="27,46.9 30.1,46.9 30.1,44 27,44 			"/>
			<path id="Shape_9_" class="st0" d="M21.3,1.6l14.9,3L21.3-0.7L6.4,4.6L21.3,1.6z M19.4,21.4v11.4l3.7-3.7v-7.7 M29.7,21.4v11.4
				l3.7,3.7V21.4 M9.2,21.4V43l3.7-3.7V21.4 M43.4,6.8H-0.8v3.7h44.2V6.8z M36.2,18.4H6.4v-3.7h29.8V18.4z"/>
		</g>
	</g>
</g>
</svg>
